<?xml version="1.0" encoding="UTF-8"?>
<svg width="6414px" height="2001px" viewBox="0 0 6414 2001" version="1.1" xmlns="http://www.w3.org/2000/svg" xmlns:xlink="http://www.w3.org/1999/xlink">
    <!-- Generator: Sketch 51.3 (57544) - http://www.bohemiancoding.com/sketch -->
    <title>Group Copy</title>
    <desc>Created with Sketch.</desc>
    <defs>
        <linearGradient x1="49.9567639%" y1="-20.6724444%" x2="49.9567639%" y2="120.856889%" id="linearGradient-1">
            <stop stop-color="#124A84" offset="0%"></stop>
            <stop stop-color="#124A84" offset="15%"></stop>
            <stop stop-color="#6FCCDE" offset="75%"></stop>
            <stop stop-color="#6FCCDE" offset="100%"></stop>
        </linearGradient>
    </defs>
    <g stroke="none" stroke-width="1" fill="none" fill-rule="evenodd">
        <g fill-rule="nonzero">
            <g transform="translate(4393.100000, 978.300000) scale(-1, 1) rotate(-180.000000) translate(-4393.100000, -978.300000) translate(2371.600000, 766.300000)" fill="#FFFFFF">
                <path d="M525.4,422.2 C477.7,416.8 436.5,396.2 414,366.5 C403.8,353.1 395.8,334 393.3,317.3 C391.6,305.4 392.6,280 395.2,270.1 C403.8,238 423.2,215.7 456.9,199.2 C476.9,189.5 495.4,183.6 532.4,175.3 C544.8,172.5 561.2,168.6 568.9,166.6 C611.9,155.6 627.4,144.7 627.4,125.1 C627.4,98.5 599.6,83.6 553.4,85.6 C537.3,86.3 527.4,88.6 515.7,94.3 C505.7,99.2 497.1,106.9 491.3,116 C481.7,131.3 481.7,131.3 432.8,131.3 C411.8,131.3 393.2,131 391.5,130.7 C387.5,129.9 382.7,125.5 381.8,121.7 C380.6,117.2 383.1,101 386.5,90.7 C400.1,49.8 441.2,18.7 497.3,6.9 C531.3,-0.3 570.7,-1.2 605.4,4.3 C692.3,18.3 742.3,71.3 735.6,142.5 C733.1,169.7 724.5,188.4 707.3,204.8 C685.7,225.3 652.2,239.1 595.4,250.8 C534.7,263.3 511,273.2 503.1,289.3 C499.8,296.1 500,308.8 503.5,316.4 C508.8,327.8 520,334.9 537.4,337.9 C548.7,339.8 567.5,339.3 576.9,336.8 C592.8,332.5 605.6,322.9 611.3,311.1 C614.5,304.2 618.3,300 622.7,298.4 C624.5,297.7 640.9,297.3 669.6,297.3 C718.6,297.3 717.7,297.2 721,304.1 C722.9,308.1 722.4,314.7 719.3,326.2 C714.7,343.5 705.2,358.7 689,374.9 C663.1,400.7 629.2,416.1 586,421.8 C573.3,423.4 538.6,423.7 525.4,422.2 Z"></path>
                <polygon points="3280.4 403.3 3280.4 387.3 3355.4 387.3 3430.4 387.3 3430.4 196.8 3430.4 6.3 3447.4 6.3 3464.4 6.3 3464.4 196.8 3464.4 387.3 3540.2 387.5 3615.9 387.8 3615.9 403.3 3615.9 418.8 3448.2 419.1 3280.4 419.3"></polygon>
                <path d="M3686.7,417.6 C3687,416.2 3838.9,30.6 3846.9,10.6 L3848.6,6.3 L3863.9,6.3 C3875.2,6.3 3879.3,6.6 3879.7,7.6 C3883.5,17.2 4041.8,417.2 4042.1,418.1 C4042.5,419 4038.7,419.3 4025.2,419.3 L4007.8,419.3 L3947,264.6 C3913.5,179.4 3881.2,97.3 3875.1,81.9 C3867.4,62.4 3863.9,54.5 3863.3,55.6 C3862.8,56.4 3830.9,138 3792.3,236.9 C3753.7,335.9 3722,417.4 3721.7,418.1 C3721.3,419 3716.7,419.3 3703.7,419.3 C3687.5,419.3 3686.2,419.2 3686.7,417.6 Z"></path>
                <path d="M11.6,417.3 C7.5,416.3 3.6,412.9 1.8,408.6 C0.6,405.9 0.4,373.6 0.4,212.1 C0.4,19.1 0.4,18.9 2.5,14.7 C4,11.6 5.7,9.9 8.8,8.3 C13.1,6.3 13.2,6.3 156.2,6.5 C298.9,6.8 299.3,6.8 302,8.9 C303.5,10 305.7,12.2 306.8,13.7 C308.8,16.3 308.9,17.7 308.9,48.6 C308.9,80.3 308.9,80.9 306.6,84.4 C302.2,91.7 307.7,91.3 199.4,91.3 L102.4,91.3 L102.4,132.3 L102.4,173.3 L192.8,173.5 L283.2,173.8 L285.9,176.3 C291.3,181.3 291.4,182 291.4,212.9 C291.4,239.5 291.3,242 289.4,245.8 C288.3,248 286,250.7 284.2,251.8 C281,253.7 278.5,253.8 191.7,254.1 L102.4,254.4 L102.4,293.8 L102.4,333.3 L197.5,333.3 C302.7,333.3 296.9,332.9 301.7,339.7 C303.8,342.7 303.9,343.5 304.2,374.6 C304.5,405.5 304.4,406.5 302.3,410.2 C301.2,412.3 298.8,414.8 297.1,415.9 C294,417.7 289.8,417.8 154.4,418 C77.7,418 13.4,417.8 11.6,417.3 Z"></path>
                <path d="M802.6,417.3 C800.8,416.9 798.1,415.5 796.7,414.2 C791.6,409.4 791.4,407.9 791.4,371.8 C791.4,335.9 791.6,334.1 796.5,329.6 C797.8,328.4 800.9,327 803.4,326.4 C806.2,325.7 827.6,325.3 859.6,325.3 L911.4,325.3 L911.6,169.9 L911.9,14.5 L914.4,11.8 C919.4,6.4 920,6.3 964.6,6.3 C1010.6,6.3 1010.5,6.3 1015.1,13.2 L1017.4,16.6 L1017.4,170.9 L1017.4,325.2 L1072.3,325.5 C1126,325.8 1127.3,325.8 1130,327.9 C1131.5,329 1133.7,331.2 1134.8,332.7 C1136.8,335.4 1136.9,336.6 1136.9,371.6 C1136.9,405.3 1136.8,408 1135,410.9 C1134,412.6 1131.7,414.9 1130,415.9 C1127,417.7 1121.7,417.8 966.4,418 C878.1,418 804.4,417.8 802.6,417.3 Z"></path>
                <path d="M1230.1,416.9 C1228.1,416.2 1225.7,414.9 1224.8,414.2 C1220.2,410.4 1220.4,419.9 1220.4,212 L1220.4,16.6 L1222.7,13.2 C1227.3,6.3 1227.2,6.3 1272.4,6.3 C1310.2,6.3 1313.2,6.5 1317.1,8.3 C1319.6,9.4 1322.2,11.6 1323.4,13.5 C1325.3,16.7 1325.4,18.4 1325.4,84.1 L1325.4,151.3 L1355.7,151.3 L1385.9,151.3 L1420.4,84.6 C1447.2,32.8 1455.8,17 1459.1,13.7 C1466.1,6.5 1467.5,6.3 1515.3,6.3 C1553.7,6.3 1557.2,6.4 1560.3,8.1 C1564.7,10.5 1567.7,15.7 1567,20.1 C1566.7,21.9 1548.2,56.3 1525.8,96.4 C1503.5,136.6 1485.3,169.6 1485.5,169.8 C1485.7,170 1489.5,172 1493.9,174.3 C1524.3,190.2 1544.9,216 1553.7,249.1 C1556.7,260.5 1556.8,261.5 1556.8,283.3 C1556.9,307.5 1556,314.2 1550.7,330.3 C1536.7,372.1 1501.1,401.2 1450.3,412.2 C1425.5,417.5 1424.5,417.6 1325.9,417.9 C1249.5,418.2 1233.3,418.1 1230.1,416.9 Z M1409,334.8 C1434.4,329.9 1448.4,312.4 1448.4,285.3 C1448.4,264.2 1440.2,249.2 1424.4,241.5 C1413.2,236 1406.7,235.3 1363.8,235.3 L1325.4,235.3 L1325.4,285.8 L1325.4,336.3 L1363.3,336.3 C1392.7,336.3 1403,336 1409,334.8 Z"></path>
                <path d="M1666.9,417.4 C1662.1,416.2 1659.5,414.1 1657.4,409.7 C1655.4,405.7 1655.4,402.7 1655.4,211.7 C1655.4,25.9 1655.5,17.6 1657.2,14.3 C1658.4,12.1 1660.7,9.9 1663.4,8.6 L1667.8,6.3 L1809.5,6.3 C1907.2,6.3 1952.1,6.6 1954.1,7.4 C1959.1,9.2 1962.2,13.2 1963.4,19 C1964.2,22.5 1964.4,34.4 1964.2,52.8 C1963.9,79.6 1963.8,81.3 1961.8,83.9 C1960.7,85.4 1958.5,87.6 1957,88.7 C1954.3,90.8 1953.5,90.8 1855.8,91.1 L1757.4,91.3 L1757.4,132.3 L1757.4,173.3 L1846.8,173.3 L1936.1,173.3 L1939.5,175.6 C1946.3,180.1 1946.5,181.3 1946.2,214.5 C1945.9,242.7 1945.8,244.3 1943.8,246.9 C1942.7,248.4 1940.5,250.6 1939,251.7 C1936.3,253.8 1935.4,253.8 1846.8,254.1 L1757.4,254.4 L1757.4,293.8 L1757.4,333.3 L1852.4,333.3 C1946.5,333.3 1947.5,333.3 1951.5,335.4 C1954.5,336.9 1956.1,338.6 1957.5,341.9 C1959.4,346 1959.5,348.3 1959.2,377.2 C1958.9,406.7 1958.8,408.3 1956.8,410.9 C1955.7,412.4 1953.5,414.6 1952,415.7 C1949.3,417.8 1949,417.8 1809.6,418 C1732.8,418 1668.6,417.8 1666.9,417.4 Z"></path>
                <path d="M2071.3,417.4 C2066.9,416 2063.6,413.3 2062,409.8 C2060.6,406.8 2060.4,387.5 2060.4,212.1 C2060.4,-7.4 2059.6,13 2068.4,8.5 L2072.9,6.3 L2211.6,6.5 C2349.9,6.8 2350.3,6.8 2353,8.9 C2354.5,10 2356.7,12.2 2357.8,13.7 C2359.8,16.3 2359.9,18 2360.2,47.1 C2360.5,67.3 2360.2,79.5 2359.4,82.9 C2358.2,88.4 2354.9,92.4 2350.1,94.2 C2348.2,95 2318.4,95.3 2257.3,95.3 L2167.4,95.3 L2167.2,251.7 C2166.9,408 2166.9,408.2 2164.8,410.9 C2163.7,412.4 2161.5,414.6 2160,415.7 C2157.3,417.7 2156,417.8 2115.6,418 C2092.7,418.1 2072.7,417.8 2071.3,417.4 Z"></path>
                <path d="M2451.6,417.3 C2447.5,416.3 2443.6,412.8 2441.8,408.6 C2440.6,405.9 2440.4,373.6 2440.4,212.1 C2440.4,25.6 2440.5,18.7 2442.3,14.7 C2443.7,11.6 2445.3,10 2448.6,8.4 L2453,6.3 L2590.4,6.3 C2727.1,6.3 2727.8,6.3 2732,8.4 C2735.1,9.9 2736.8,11.6 2738.3,14.7 C2740.3,18.7 2740.4,20.7 2740.4,50.8 C2740.4,80.9 2740.3,82.9 2738.3,86.9 C2736.8,90 2735.1,91.7 2732,93.2 C2727.8,95.3 2726.6,95.3 2637.6,95.3 L2547.4,95.3 L2547.4,250.5 C2547.4,403.1 2547.4,405.7 2545.4,409.8 C2544.3,412 2542,414.7 2540.2,415.8 C2537.1,417.7 2534.8,417.8 2495.9,418 C2473.4,418.1 2453.4,417.8 2451.6,417.3 Z"></path>
                <path d="M2940,417.2 C2934.9,416 2930.4,413.2 2927.7,409.4 C2924.2,404.8 2785.4,24.7 2785.2,19.6 C2785.1,14.6 2787.2,11 2791.7,8.3 C2794.7,6.4 2797,6.3 2833.2,6.3 C2858.9,6.3 2873,6.7 2876.1,7.5 C2885,9.7 2886.4,12.1 2899.4,47.3 L2911.1,78.8 L2989.1,79.1 C3050.8,79.3 3067.3,79 3068.1,78.1 C3068.6,77.4 3074.2,63.3 3080.5,46.9 C3086.7,30.4 3092.8,15.6 3093.9,14 C3095,12.3 3097.7,10 3099.9,8.9 C3103.7,6.9 3105.6,6.8 3143.9,6.5 C3180.5,6.3 3184.2,6.4 3187.3,8 C3192,10.4 3194.8,14.6 3194.7,18.7 C3194.6,23.4 3056,403.8 3052.6,408.7 C3051,411.1 3047.9,413.7 3044.9,415.2 L3040,417.8 L2991.9,418 C2964.7,418.1 2942.2,417.7 2940,417.2 Z M3016.8,242.7 C3031.3,201.5 3043.5,166.8 3043.8,165.6 L3044.5,163.3 L2989.9,163.3 C2946.5,163.3 2935.3,163.6 2935.6,164.6 C2935.9,165.2 2948.2,200.1 2962.9,242 C2977.7,284 2989.9,318.1 2990.1,318 C2990.3,317.8 3002.3,283.9 3016.8,242.7 Z"></path>
            </g>
            <g transform="translate(1000.500000, 1000.500000) scale(-1, 1) rotate(-180.000000) translate(-1000.500000, -1000.500000) translate(0.000000, 0.000000)" fill="url(#linearGradient-1)">
                <g transform="translate(-0.000000, -0.000000)">
                    <g>
                        <g>
                            <path d="M909.951995,1996.08384 L869.301187,1805.15832 C797.5514,1468.37304 533.598816,1204.42045 196.785767,1132.67067 L5.02724114,1091.85326 C2.30608048,1061.78165 0.889966259,1031.29355 0.889966259,1000.5 C0.889966259,970.983741 2.1950127,941.745148 4.69403779,912.867524 L196.785767,871.994581 C533.598816,800.27256 797.5514,536.292209 869.301187,199.534694 L910.340732,6.72102481 L910.72947,4.88840641 C940.301267,2.25054659 970.261801,0.889966259 1000.5,0.889966259 C1030.12734,0.889966259 1059.477,2.1950127 1088.43792,4.72180474 L1088.93773,7.05422816 L1088.99326,7.05422816 L1130.00504,199.534694 C1201.72706,536.292209 1465.67964,800.27256 1802.43716,871.994581 L1992.89064,912.534321 L1992.89064,912.589855 L1996.3615,913.339562 C1998.86053,942.078351 2000.11004,971.122576 2000.11004,1000.5 C2000.11004,1031.18248 1998.74946,1061.53175 1996.0283,1091.49228 L1992.89064,1092.15869 L1802.43716,1132.67067 C1465.67964,1204.42045 1201.72706,1468.37304 1130.00504,1805.15832 L1089.2987,1996.22267 C1060.03234,1998.805 1030.43277,2000.11004 1000.5,2000.11004 C969.984131,2000.11004 939.773695,1998.74946 909.951995,1996.08384 M499.83421,1002.33262 C749.708953,1055.53409 946.437762,1252.2629 999.639229,1502.13764 C1052.8407,1252.2629 1249.56951,1055.53409 1499.44425,1002.33262 C1249.56951,949.131155 1052.8407,752.402346 999.639229,502.527604 C946.437762,752.402346 749.708953,949.131155 499.83421,1002.33262"></path>
                        </g>
                    </g>
                </g>
            </g>
        </g>
    </g>
</svg>